<svg xmlns="http://www.w3.org/2000/svg" version="1.1" xmlns:xlink="http://www.w3.org/1999/xlink" width="903.3648035266541" height="500"><polyline points="903.3648035266541,4.777594419929699 901.7089699406625,6.754304231853913 899.6012902405184,9.38212148769707 898.0960720259995,11.419638747671101 897.3429951691675,12.386944921595532" fill="none" stroke-width="5" stroke="#ff9500"></polyline><polyline points="351.84124952755985,366.79426875767007 349.07310739157606,364.95133533153535 346.3985151757304,362.93533455323825 344.3740949045916,360.5881670576763 342.8239727284278,358.0679322100185 341.67985720562586,355.3914689956823 340.6760665626323,352.5990038804521 339.70969588811937,349.80279676844015" fill="none" stroke-width="5" stroke="#ff9500"></polyline><polyline points="378.06609863163743,384.10942347053515 373.70480135613593,381.22995692958443 369.21159869340204,378.42345932637335" fill="none" stroke-width="5" stroke="#ff9500"></polyline><polyline points="329.9168902510667,333.86750337714614 328.643675838469,332.3866081418074 327.3742034224535,331.1994596556516 325.98218061119275,330.26770245138505 324.56677031996395,329.3911396999626 323.1513600287351,328.79335571046386 321.15687573211494,328.14599026332655 318.40089508582093,327.61556221629536 316.33157085303714,327.52294779543575 314.5241863964272,327.61556221629536 313.00493569392756,327.79798456051134 311.49503998341515,328.12353828250406 309.6043960980658,328.66145032309845 303.89130247695493,331.8898580660764" fill="none" stroke-width="5" stroke="#ff9500"></polyline><polyline points="252.54829982391857,354.8956544190969 249.66696228441089,356.1361263597393 246.4432320376925,357.48137421093105 243.29340622746037,358.7648791147945 240.05657899190666,360.00909305221853 236.94230215133234,361.0353356758352 233.54550455231868,362.06719129459105 228.26367606282886,363.60608748041005 218.67761574943827,366.51455449660085 212.0851528794019,368.52026478369874 205.51701298847917,370.521297574803 198.22853871294538,373.10514636821324 188.89412768459584,376.32607011756147 184.93041756961466,377.73212541673655 179.903980362014,379.49367041242306 172.7099915057638,381.95216231288543 165.28212784930142,384.5406886022227 156.851409048991,387.4351231304327 148.34865681048532,390.34359014655706" fill="none" stroke-width="5" stroke="#ff9500"></polyline><polyline points="93.77537541591406,446.3519273154771 85.84140669166698,455.1343938152514 80.94032637701413,459.58737001240047 79.26016981190894,460.7109045528703 76.99626174541879,462.21799376581316 58.565991984659654,473.5431470941342 40.89815407298579,484.9655923393749 34.954927648510804,488.2622915239658 32.11942957005956,489.7712517353327 29.819037034766094,490.75446139566196 29.048185692839137,491.0248206648105 28.141686967097538,491.3092124219398 25.118153549224637,492.2334856325767" fill="none" stroke-width="5" stroke="#ff9500"></polyline><polyline points="105.31569356053934,433.4916197981851 101.26685301826177,438.005403443384 97.93647586230412,441.71839977246964 95.18049521601012,444.78309515520596 93.77537541591406,446.3519273154771" fill="none" stroke-width="5" stroke="#ff9500"></polyline><polyline points="415.814426894657,393.5299004254596 414.1707547983551,393.142603756205 412.38862882027024,392.65333767403723 410.90866908401057,392.2258145391312 409.0648001588632,391.72625796576415 407.6213248914068,391.27815384845974 405.8027144445186,390.8702761968067 404.4097561341123,390.6148849149176 402.45269180544096,390.2172977543973 401.02231352708577,389.9020345236703 398.91463382694167,389.525028345615 397.3083816988546,389.25934657252657" fill="none" stroke-width="5" stroke="#ff9500"></polyline><polyline points="558.4995715414042,414.0575593948312 553.9708199090124,419.44977678987647 552.4908601730186,421.1823213103228 551.436552573241,422.09911052733014 549.994012805196,423.0065447524167 547.4092285126403,424.1478537777154 543.8870740204129,424.6792173239587 540.4837279271145,424.4949239813186 536.3937254197742,423.3685829432127" fill="none" stroke-width="5" stroke="#ff9500"></polyline><polyline points="674.1113693090783,10.890146199851902 671.038254433301,16.166361693936647 668.7790238628044,21.646516013914376 667.1699652370148,28.623469055569227 666.3083704726523,32.75744002514319 664.7096023379954,40.283531097870195 664.487889027473,41.36403267511912 663.9303315034927,44.1340458095269 663.514034358998,45.870332326754806 662.5570186764721,48.52153706263246 661.3268372269625,51.29248569625222 656.2667220482612,59.77933444848599 655.2545119126917,62.723350434268134 654.6529859264779,65.06584043376995 654.4874025678787,66.89661237028145 652.7539225482868,82.18547581365016 652.2066555157053,87.07813663526193 649.119508151947,114.32548636604173 647.3850926332095,133.2880551719902 646.7742116550086,136.1394567369128 645.2755419347744,140.4296560730987 641.981649247886,148.7527924651573 640.5512709692649,152.97095836281565" fill="none" stroke-width="5" stroke="#ff9500"></polyline><polyline points="668.3140807598166,229.8867671767323 670.6004408073951,235.27898457177753 672.7567664657664,240.36716472644065 674.6099903831669,245.45908687795176" fill="none" stroke-width="5" stroke="#ff9500"></polyline><polyline points="673.6744911820522,274.19575133684555 668.5582460514274,282.4852097576039 665.4486467068468,287.2300617055119 640.2201042520666,327.38355841444064 637.306959740015,332.18360481519295 633.776385754946,338.1679932045313 620.9787566842609,354.6168756571732 598.1628666688866,376.373780576776 595.4227895091304,378.88372493330104 594.494774301446,380.0053884754133 592.6396793857544,381.8333539142888 589.2803017546897,385.04960016764346 588.1333797341853,386.08987527924097 586.1267339478753,387.80183881722235 581.9272780341249,391.7964204058677 564.6196073150226,408.2583998473449 558.4995715414042,414.0575593948312" fill="none" stroke-width="5" stroke="#ff9500"></polyline><polyline points="648.6629845418008,180.84977005432796 651.9334897489872,191.09535730454564 666.2494340230264,225.75373170630385 668.3140807598166,229.8867671767323" fill="none" stroke-width="5" stroke="#ff9500"></polyline><polyline points="642.6860801462251,167.87346063607532 643.5935143711123,169.72762005262138 645.0790871025112,173.14780513180256 647.2007992906359,177.64942728737816 648.6629845418008,180.84977005432796" fill="none" stroke-width="5" stroke="#ff9500"></polyline><polyline points="25.118153549224637,492.2334856325767 20.284429177305164,493.5843464789741 16.40865598705699,494.55165265289844 12.67788517314245,495.8417060511795" fill="none" stroke-width="5" stroke="#ff9500"></polyline><polyline points="0.4630721046966752,500 5.07134116924562,498.7155595969246 6.7692722191796975,498.1336790938307 8.47094526596184,497.44889367861157 10.71801434703452,496.5910409112301 12.67788517314245,495.8417060511795" fill="none" stroke-width="5" stroke="#ff9500"></polyline><polyline points="339.70969588811937,349.80279676844015 338.8191006486497,347.0758165972534 337.7657285482833,344.527516773501" fill="none" stroke-width="5" stroke="#ff9500"></polyline><polyline points="334.52515931561567,339.9295382001513 331.77572716360635,336.3044787959981 329.9168902510667,333.86750337714614" fill="none" stroke-width="5" stroke="#ff9500"></polyline><polyline points="698.3959930699021,3.2826666966100926 694.0365667929576,5.181730074801161 692.540703570426,5.627963193747975 690.7370611106642,5.950710418104633 689.1289379840201,6.301522618489431 686.3944738191371,6.448395993114142" fill="none" stroke-width="5" stroke="#ff9500"></polyline><polyline points="871.0582741163184,31.618001998268475 857.9229298338844,29.827456527341866 852.503582962023,28.798407406155636 847.6857620763755,27.393287606126027 835.4157545551519,23.582999360120706 830.5221582341951,22.28359096985244 824.9989709510629,21.19373440054989 807.1243877157272,17.653805423693047 772.640016165609,11.391573771643015 754.8505633575696,8.231457470344594 709.7819538462065,0.12909888979584228" fill="none" stroke-width="5" stroke="#ff9500"></polyline><polyline points="148.34865681048532,390.34359014655706 143.55328790566026,392.16407159186934 140.60927191967872,394.113651926911 138.48475323411716,396.23255761739983" fill="none" stroke-width="5" stroke="#ff9500"></polyline><polyline points="138.48475323411716,396.23255761739983 137.1245373956661,397.91364968171706 132.96437244842159,402.47888578304503 129.0745667704585,407.12644581403333 120.71868790631163,416.3205319622423 105.50653539766351,433.2755194827354 105.31569356053934,433.4916197981851" fill="none" stroke-width="5" stroke="#ff9500"></polyline><polyline points="275.95729633266495,349.11707585400904 274.3304632217805,349.99363860543144 272.84769698808424,350.561486620478 271.10860397335324,351.1218506419613 269.5145133346899,351.47827583755173 266.02697231297486,351.93667044605536 259.0640517595002,352.7627162406272 255.8150630339909,353.5672455535884 252.54829982391857,354.8956544190969" fill="none" stroke-width="5" stroke="#ff9500"></polyline><polyline points="303.89130247695493,331.8898580660764 296.1378850984334,336.70019495802785 277.4456755615004,348.0852202352532 275.95729633266495,349.11707585400904" fill="none" stroke-width="5" stroke="#ff9500"></polyline><polyline points="337.7657285482833,344.527516773501 336.01166754616,342.11860633074366 334.52515931561567,339.9295382001513" fill="none" stroke-width="5" stroke="#ff9500"></polyline><polyline points="369.21159869340204,378.42345932637335 365.98973944497476,376.3223281207134 363.5218925525251,374.5935255971151 360.90062379090017,372.60558979484614 358.1904826053967,370.7813663526858 355.3989529894449,368.98520788662006 351.84124952755985,366.79426875767007" fill="none" stroke-width="5" stroke="#ff9500"></polyline><polyline points="397.3083816988546,389.25934657252657 395.4897712519664,388.872049903272 394.6992744269194,388.7504350071058 392.4157208770434,388.48475323401743 390.6850473551541,388.1994259776761 388.9786968123783,388.0675205903107 387.27141077019115,387.7410313691725 385.67919113008486,387.37338018310436 383.80912822700105,386.63994880945864 380.89785471324063,385.7428050756378 378.06609863163743,384.10942347053515" fill="none" stroke-width="5" stroke="#ff9500"></polyline><polyline points="445.31071670480054,392.7646620790041 441.82598218078795,391.51296414795047 439.7772389302697,391.49612516233356 438.1457283236576,391.42034972702436 436.51234671848846,391.51109314952635 434.6834457804675,391.73654845696336 433.21564753389754,392.03216620450394 431.4213600663888,392.5513682611239 428.2593727664669,393.24457316911827 426.3275669163206,393.63186983837284 424.6838948200188,393.8255181730001 422.5640536304508,394.00887601642813 420.9830599806229,393.9985855252289 419.1766110231585,393.9480685683783 417.7209742662783,393.8255181730001 415.814426894657,393.5299004254596" fill="none" stroke-width="5" stroke="#ff9500"></polyline><polyline points="453.1810714834282,395.45796427889076 449.1640379139604,394.1379749061575 445.31071670480054,392.7646620790041" fill="none" stroke-width="5" stroke="#ff9500"></polyline><polyline points="536.3937254197742,423.3685829432127 531.9650722018051,421.88301021188033 527.5364189841022,420.4881809031165 516.095263754754,416.96509091181 507.72254590492383,414.2540142270945 505.4099918799407,413.166028656216 503.4220560776052,412.28385290958795 502.00758128552195,411.54387304152465 461.4041094609311,398.3121723413829 453.1810714834282,395.45796427889076" fill="none" stroke-width="5" stroke="#ff9500"></polyline><polyline points="677.5381028826106,252.92249950420486 678.0133364767312,254.9693717561662 677.9712390125228,257.0171795073395 677.211613661406,259.7132882048622 675.8888177909038,262.83879103564834 675.5557800754144,263.84164617923045 675.2835498078418,265.0577951406264 675.1722254028749,266.2571051164719 675.0870949755786,269.110377679752 674.9813835660166,270.2666546923101 674.752186261798,271.4771906585004 674.3817285780939,272.82618050647375 673.6744911820522,274.19575133684555" fill="none" stroke-width="5" stroke="#ff9500"></polyline><polyline points="674.6099903831669,245.45908687795176 675.8513978229549,248.67626863045194 676.9122539170173,251.3480543487946 677.1788711894507,251.9860648038782 677.5381028826106,252.92249950420486" fill="none" stroke-width="5" stroke="#ff9500"></polyline><polyline points="640.3623001306977,162.1987224823248 641.7889364122047,165.6918764991791 642.6860801462251,167.87346063607532" fill="none" stroke-width="5" stroke="#ff9500"></polyline><polyline points="640.5512709692649,152.97095836281565 640.1246833336374,154.23481778349262 639.8730340485963,155.09079955245008 639.5343833377019,157.2115762412965 639.5409318322525,158.94692725931236 639.9001635254125,160.98257352086242 640.3623001306977,162.1987224823248" fill="none" stroke-width="5" stroke="#ff9500"></polyline><polyline points="686.3944738191371,6.448395993114142 683.383101890954,6.427815010649207 680.3455359851002,6.636431332535775 678.7982203063731,7.070502961792902 677.2228396516842,7.844160801090016 675.8710433063407,8.76656301336942 674.682023821628,9.95651799716124 674.1113693090783,10.890146199851902" fill="none" stroke-width="5" stroke="#ff9500"></polyline><polyline points="709.7819538462065,0.12909888979584228 708.5508368975513,0.030871473664151328 707.359010915402,0 705.4468505483757,0.23106830270908096 703.7788554729602,0.7343668728577168 702.1791518391577,1.363957835232632 700.8339039878331,2.055291744802956 699.1949093875248,2.934660993794913 698.3959930699021,3.2826666966100926" fill="none" stroke-width="5" stroke="#ff9500"></polyline><polyline points="889.7776131300675,24.010522495026663 887.9964226511282,26.538241336380608 885.4743168050463,28.777826423757148 882.7576271249923,30.33169059676899 880.9324681838193,31.060444474421132 879.0146948216538,31.54503306059536 876.7928842188403,31.906135752179377 874.5701381171472,31.955717209817934 871.0582741163184,31.618001998268475" fill="none" stroke-width="5" stroke="#ff9500"></polyline><polyline points="891.7038059850747,21.051538521985215 890.4493015564514,22.952472898600252 889.7776131300675,24.010522495026663" fill="none" stroke-width="5" stroke="#ff9500"></polyline><polyline points="897.3429951691675,12.386944921595532 896.7545661717888,13.192409733702338 891.7038059850747,21.051538521985215" fill="none" stroke-width="5" stroke="#ff9500"></polyline><circle r="7.5" cx="754.8505633575696" cy="8.231457470344594" fill="#ff9500"></circle><circle r="7.5" cx="694.0365667929576" cy="5.181730074801161" fill="#ff9500"></circle><circle r="7.5" cx="664.487889027473" cy="41.36403267511912" fill="#ff9500"></circle><circle r="7.5" cx="637.306959740015" cy="332.18360481519295" fill="#ff9500"></circle><circle r="7.5" cx="148.34865681048532" cy="390.34359014655706" fill="#ff9500"></circle><circle r="7.5" cx="668.5582460514274" cy="282.4852097576039" fill="#ff9500"></circle><circle r="7.5" cx="652.2066555157053" cy="87.07813663526193" fill="#ff9500"></circle><circle r="7.5" cx="896.7545661717888" cy="13.192409733702338" fill="#ff9500"></circle><circle r="7.5" cx="830.5221582341951" cy="22.28359096985244" fill="#ff9500"></circle><circle r="7.5" cx="645.0790871025112" cy="173.14780513180256" fill="#ff9500"></circle><circle r="7.5" cx="449.1640379139604" cy="394.1379749061575" fill="#ff9500"></circle><circle r="7.5" cx="373.70480135613593" cy="381.22995692958443" fill="#ff9500"></circle><circle r="7.5" cx="205.51701298847917" cy="370.521297574803" fill="#ff9500"></circle><circle r="7.5" cx="331.77572716360635" cy="336.3044787959981" fill="#ff9500"></circle><circle r="7.5" cx="5.07134116924562" cy="498.7155595969246" fill="#ff9500"></circle><circle r="7.5" cx="97.93647586230412" cy="441.71839977246964" fill="#ff9500"></circle><circle r="7.5" cx="531.9650722018051" cy="421.88301021188033" fill="#ff9500"></circle><circle r="7.5" cx="670.6004408073951" cy="235.27898457177753" fill="#ff9500"></circle><circle r="7.5" cx="592.6396793857544" cy="381.8333539142888" fill="#ff9500"></circle></svg>