<?xml version="1.0" encoding="UTF-8" standalone="no"?>
<!-- Created with Inkscape (http://www.inkscape.org/) -->

<svg
   version="1.1"
   id="svg1"
   width="2.1800001in"
   height="4.96in"
   viewBox="0 0 209.28002 476.15999"
   sodipodi:docname="IMG_4587.svg"
   inkscape:version="1.3.2 (091e20e, 2023-11-25, custom)"
   xmlns:inkscape="http://www.inkscape.org/namespaces/inkscape"
   xmlns:sodipodi="http://sodipodi.sourceforge.net/DTD/sodipodi-0.dtd"
   xmlns="http://www.w3.org/2000/svg"
   xmlns:svg="http://www.w3.org/2000/svg">
  <defs
     id="defs1" />
  <sodipodi:namedview
     id="namedview1"
     pagecolor="#ffffff"
     bordercolor="#000000"
     borderopacity="0.25"
     inkscape:showpageshadow="2"
     inkscape:pageopacity="0.0"
     inkscape:pagecheckerboard="0"
     inkscape:deskcolor="#d1d1d1"
     inkscape:zoom="1.801076"
     inkscape:cx="98.552199"
     inkscape:cy="234.58199"
     inkscape:window-width="1440"
     inkscape:window-height="837"
     inkscape:window-x="-8"
     inkscape:window-y="-8"
     inkscape:window-maximized="1"
     inkscape:current-layer="g1"
     inkscape:document-units="in" />
  <g
     inkscape:groupmode="layer"
     inkscape:label="Image"
     id="g1">
    <rect
       style="fill:#ffffff;fill-opacity:0;stroke:#000000;stroke-opacity:1"
       id="rect1"
       width="113.28"
       height="188.16"
       x="7.2179055"
       y="74.214844" />
    <path
       style="fill:#000000;stroke-width:0.154658"
       d="m 31.100546,224.05088 c -0.166031,0.13257 -0.996455,0.6179 -1.787509,1.17123 -2.097502,1.46721 -4.706356,2.99679 -5.970707,3.50068 -2.480464,0.98858 -2.58072,1.11297 -1.557568,1.93253 1.743125,1.39624 3.183206,1.30383 6.049585,-0.38826 1.017923,-0.60089 2.334799,-1.45444 2.926396,-1.89678 1.417254,-1.0597 2.324892,-1.55858 2.747857,-1.51038 1.040837,0.1186 -0.158195,1.38301 -3.605616,3.80222 -1.133196,0.79521 -2.483802,1.68805 -3.001346,1.98401 -0.984812,0.56325 -1.160547,0.90655 -0.53939,1.05364 0.202758,0.048 0.600248,0.17738 0.883316,0.28747 0.902187,0.35091 2.876161,-0.007 4.459442,-0.80741 1.354292,-0.68509 4.304773,-2.789 4.945436,-3.52644 0.528026,-0.60781 2.105595,-1.7928 2.418809,-1.8169 0.170842,-0.0131 0.3871,0.0809 0.480576,0.20901 0.216211,0.29631 -1.008434,1.56927 -4.091868,4.25331 -1.305982,1.13681 -2.368606,2.14362 -2.361399,2.23731 0.01388,0.18002 0.784175,0.1992 2.227588,0.0555 0.479768,-0.0477 0.878806,-0.002 0.886754,0.10097 0.0079,0.10334 0.112435,0.18033 0.232191,0.1711 0.119756,-0.009 0.160262,-0.0955 0.09001,-0.19179 -0.07026,-0.0963 0.491279,-0.37822 1.247836,-0.62651 1.726341,-0.56657 2.90926,-1.36953 4.800105,-3.25824 1.571599,-1.56983 2.788409,-2.60809 3.083166,-2.63078 0.514626,-0.0396 0.121946,0.88319 -0.730143,1.71579 -1.875127,1.83226 -2.669804,2.85474 -2.629175,3.38278 0.03387,0.44007 0.144612,0.50987 0.815109,0.51375 0.426759,0.003 1.27536,-0.15724 1.885785,-0.35489 1.032066,-0.33418 3.960461,-2.06579 5.538954,-3.27525 0.375967,-0.28806 0.929992,-0.60416 1.231165,-0.70245 0.595232,-0.19424 0.828034,-0.7504 0.575556,-1.37504 -0.09007,-0.22284 -0.0072,-0.82804 0.189705,-1.38521 0.192317,-0.54424 0.343391,-1.07101 0.335727,-1.17063 -0.0076,-0.0996 -0.397204,-0.3013 -0.865642,-0.44816 -1.086843,-0.34076 -1.730796,-1.04107 -1.801434,-1.9591 -0.05919,-0.76926 0.48151,-2.03668 0.967243,-2.26725 0.518218,-0.246 0.268954,-0.78301 -0.477949,-1.02968 -1.506215,-0.49745 -2.197847,-2.115 -1.410438,-3.29867 0.510383,-0.76724 0.452501,-0.92348 -0.545501,-1.47244 -0.672111,-0.36971 -1.139278,-0.46614 -1.954468,-0.4034 -0.589186,0.0453 -1.153175,0.16671 -1.253314,0.26971 -0.100136,0.10302 -0.948616,0.50624 -1.885506,0.89604 -0.936896,0.38981 -1.925453,0.84734 -2.196793,1.01674 -0.271344,0.16941 -1.20662,0.71456 -2.078399,1.21145 -0.871778,0.49689 -2.134693,1.29799 -2.806475,1.78019 -1.883173,1.34182 -3.662055,2.80366 -5.46767,4.25028 z m 52.995487,30.29143 c 0.567038,-0.89632 0.182633,-1.95871 -1.074474,-2.96944 -1.34895,-1.0846 -4.071966,-1.88128 -5.785994,-1.69287 -1.072105,0.11786 -1.301082,0.059 -2.674288,-0.68648 -1.660853,-0.90171 -2.716528,-1.00916 -3.079994,-0.31349 -0.127776,0.24458 -0.128234,0.50204 -0.001,0.67228 0.113242,0.15172 0.22416,0.49472 0.246489,0.76221 0.03105,0.37225 -0.04596,0.46483 -0.328406,0.39462 -2.693352,-0.66957 -3.616104,-0.99905 -4.15771,-1.48455 -0.342181,-0.30668 -0.666357,-0.55424 -0.720394,-0.55008 -0.05403,0.005 -0.626736,0.32743 -1.272673,0.71838 -1.594067,0.96482 -2.215187,0.98588 -3.063975,0.10378 l -0.674135,-0.70059 -0.815855,0.4016 c -1.112765,0.54774 -2.586334,0.63129 -3.560374,0.20188 -0.738168,-0.32541 -0.874864,-0.32337 -1.959502,0.029 -0.64129,0.20837 -1.413466,0.45374 -1.715951,0.54536 -0.302483,0.0916 -0.642976,0.38199 -0.75665,0.64534 -0.113668,0.26335 -0.404106,0.75706 -0.645411,1.09718 -0.506296,0.71359 -0.521613,0.98276 -0.08494,1.49268 0.30618,0.35754 0.336765,0.35566 1.114195,-0.0695 0.439657,-0.24043 0.90248,-0.38389 1.028498,-0.31881 0.375756,0.1941 1.914723,-0.44295 2.427271,-1.00476 0.894939,-0.98095 1.409009,-1.09683 4.012814,-0.90471 0.527621,0.0389 0.835267,0.25941 1.418677,1.01668 0.742748,0.96408 1.704511,1.51534 2.532668,1.45163 0.276543,-0.0213 0.522768,0.14932 0.671596,0.46534 0.339032,0.71995 0.802498,0.57907 1.756308,-0.53376 0.775943,-0.90531 0.82501,-1.03704 0.641223,-1.72173 -0.186112,-0.69334 -0.16747,-0.73933 0.287508,-0.70931 0.349335,0.023 0.535466,0.2033 0.660096,0.63922 0.279262,0.97675 0.698828,1.48311 1.308573,1.5792 0.313331,0.0494 0.72859,0.20732 0.922798,0.35095 0.257284,0.19029 0.488704,0.19731 0.852773,0.0258 0.560816,-0.26411 0.73041,-0.65754 0.662708,-1.53738 -0.05629,-0.73161 0.222416,-0.78162 1.549625,-0.27808 0.60269,0.22864 1.201392,0.6612 1.569163,1.1337 0.327064,0.42019 0.870447,0.88075 1.20753,1.02344 0.337079,0.1427 0.716587,0.47969 0.843344,0.74888 0.126758,0.26917 0.372907,0.47844 0.546988,0.46504 0.503052,-0.0386 1.036158,-1.323 0.960734,-2.31448 -0.08616,-1.1325 0.335891,-1.09415 0.723501,0.0658 0.152211,0.45546 0.33462,0.87657 0.405356,0.93574 0.11006,0.0921 0.778556,0.15195 1.812227,0.16236 0.146134,0.002 0.484692,0.31609 0.75234,0.69919 0.554007,0.79289 0.937924,0.78309 1.456909,-0.0373 z m -14.032253,-6.1531 c 0.141991,-0.16566 0.104303,-0.45251 -0.127806,-0.97258 -1.126358,-2.52378 -0.248375,-6.44618 2.387731,-10.66722 2.66503,-4.26733 3.275237,-5.48597 3.496709,-6.98334 0.236674,-1.60008 0.207513,-2.73137 -0.07759,-3.01065 -0.102287,-0.10018 -0.320227,-0.54645 -0.484318,-0.99169 -0.392961,-1.06626 -1.89015,-2.35633 -3.365972,-2.90033 -1.41343,-0.52101 -4.25981,-0.51758 -6.074956,0.008 -2.073814,0.59967 -4.410226,2.18888 -6.419381,4.36643 -0.994396,1.07774 -2.136127,2.2728 -2.537181,2.65568 -0.586712,0.56016 -0.671714,0.73688 -0.435035,0.90437 0.550484,0.38962 2.692503,-0.54954 4.137823,-1.81424 0.85436,-0.74759 1.160705,-0.49181 0.652111,0.54448 -0.516346,1.05208 -0.241521,1.21687 1.600373,0.95962 1.111376,-0.15521 1.586375,-0.3399 2.389422,-0.92908 1.000017,-0.73369 1.727404,-0.76087 1.110844,-0.0414 -0.423787,0.49446 -0.341922,0.77364 0.280628,0.95706 0.930404,0.27412 2.21361,0.0515 3.332936,-0.57824 0.58826,-0.33095 1.117212,-0.56088 1.17545,-0.51097 0.438742,0.37604 -1.52988,2.20851 -2.683866,2.49825 -0.905972,0.22747 -2.214493,0 -2.989605,-0.51786 -0.55417,-0.37084 -0.615867,-0.37069 -1.375278,0.004 -1.087945,0.5355 -2.478223,0.60744 -3.500866,0.18115 -0.760017,-0.31682 -0.903124,-0.31871 -1.3892,-0.0182 -1.047001,0.64724 -2.17902,0.9368 -3.125231,0.79936 -0.720987,-0.1047 -0.963433,-0.0627 -1.223324,0.21153 -0.593148,0.62602 -2.567108,4.3808 -2.413642,4.59111 0.411093,0.56339 3.176209,-0.50213 4.384614,-1.68956 0.543558,-0.53414 0.628355,-0.56344 0.715953,-0.24731 0.05466,0.19724 -0.08114,0.64662 -0.301774,0.99868 -0.562283,0.89716 -0.340009,1.23148 0.683153,1.02753 0.97625,-0.1946 3.202404,-1.36724 3.563064,-1.87687 0.139872,-0.19765 0.340251,-0.31497 0.445286,-0.26073 0.320807,0.1657 0.258193,0.67539 -0.166132,1.35245 -0.306422,0.48892 -0.341967,0.69775 -0.147194,0.86469 0.557686,0.47799 3.625264,-0.87911 4.795589,-2.12157 0.416322,-0.44199 0.43116,-0.44396 0.459878,-0.061 0.132175,1.76253 -3.260508,4.05671 -5.289897,3.57708 -0.415721,-0.0983 -0.84272,-0.24698 -0.948888,-0.33049 -0.106168,-0.0835 -1.000424,-0.0369 -1.987238,0.10373 -1.64046,0.23366 -1.853511,0.21985 -2.486261,-0.16112 -0.629394,-0.37898 -0.76069,-0.38807 -1.449983,-0.10021 -0.725474,0.30291 -1.875239,0.35397 -2.804644,0.12451 -0.377544,-0.0932 -0.561131,0.15886 -1.378069,1.89222 -0.518373,1.09989 -1.002383,2.05093 -1.075571,2.11345 -0.0732,0.0624 -0.328416,0.50092 -0.567171,0.97432 -0.434285,0.86102 -0.855667,1.46501 -2.387182,3.42158 -0.449493,0.57425 -0.749735,1.13662 -0.667211,1.24972 0.40107,0.54963 3.078602,-0.25616 4.782872,-1.43944 0.47914,-0.33266 1.822395,-1.71942 2.985013,-3.08169 1.916605,-2.24572 2.733174,-2.87233 2.455707,-1.88441 -0.228602,0.81395 -1.547663,2.84382 -2.901517,4.46508 -0.790948,0.94716 -1.431743,1.80457 -1.423991,1.90532 0.05194,0.67508 2.226956,0.0642 4.118632,-1.15689 1.102195,-0.71143 2.498372,-2.16104 3.41915,-3.54999 0.580358,-0.87543 0.873578,-0.79409 0.618119,0.17152 -0.190543,0.72025 -2.070775,3.5444 -2.596685,3.90029 -0.537147,0.36354 0.06296,0.92073 0.999093,0.9277 1.048595,0.008 2.207187,-0.44508 3.252431,-1.27133 0.461099,-0.36447 0.926241,-0.66945 1.033658,-0.67772 0.107412,-0.009 0.226746,0.39375 0.265191,0.89337 0.0888,1.15407 0.277621,1.54671 0.727166,1.51214 0.460144,-0.0354 1.530049,-0.65853 2.344829,-1.36564 0.72769,-0.63154 1.155123,-0.59331 1.497579,0.13387 0.430835,0.91489 2.183539,1.51599 2.691664,0.92318 z m 5.269057,-0.87893 c 0.38913,-0.33324 0.379008,-0.38083 -0.482432,-2.26883 -1.236259,-2.70947 -0.474684,-7.08888 1.973722,-11.34986 0.420132,-0.73116 0.900081,-1.48829 1.066553,-1.68251 1.032699,-1.20487 2.060765,-3.83738 1.752338,-4.48712 -0.169568,-0.35721 -1.910055,-0.3239 -2.098099,0.0402 -0.06044,0.11704 -0.207092,0.75654 -0.325871,1.42111 -0.253423,1.41797 -1.537119,4.67797 -2.331581,5.92117 -1.252222,1.9595 -3.141858,5.50342 -3.688511,6.91763 -0.642132,1.66118 -0.822841,3.63509 -0.411644,4.49638 0.228649,0.47891 0.331557,0.51454 1.046199,0.36214 0.825541,-0.17609 1.810788,0.10464 2.361127,0.67275 0.358207,0.36976 0.66992,0.35799 1.138199,-0.0431 z m 28.022523,-9.75286 c 0.34045,-0.13598 0.86305,-0.54461 1.16131,-0.90807 0.52076,-0.63461 0.52982,-0.69634 0.22791,-1.55487 -0.17291,-0.49174 -0.67876,-1.37748 -1.12413,-1.96835 -1.07653,-1.42827 -1.09105,-1.82364 -0.0801,-2.18107 0.48131,-0.17014 0.83049,-0.43915 0.88798,-0.68407 0.10901,-0.46449 -0.84695,-2.14665 -1.82236,-3.20673 -0.35618,-0.38709 -0.65547,-0.80615 -0.66509,-0.93124 -0.01,-0.12506 -0.10037,-0.22102 -0.20166,-0.21324 -0.36475,0.0279 -3.595023,-4.87654 -4.116293,-6.24981 -0.21351,-0.56252 -0.68399,-0.54936 -0.93732,0.0261 -0.10508,0.23877 -0.27908,0.38866 -0.38665,0.33309 -0.16564,-0.0856 -2.01595,-2.328 -3.191342,-3.86769 -0.189754,-0.24856 -0.964979,-1.25189 -1.722712,-2.22962 -0.757746,-0.97774 -1.874464,-2.45005 -2.481602,-3.27183 -0.931544,-1.26085 -1.148584,-1.45082 -1.390141,-1.21682 -0.379615,0.36775 -0.805864,0.0328 -2.187363,-1.71913 -0.629092,-0.79775 -1.24901,-1.37487 -1.520247,-1.41531 -0.2519,-0.0375 -1.577388,-0.10144 -2.945524,-0.14201 -2.356865,-0.0698 -2.493062,-0.0987 -2.593092,-0.54789 l -0.105566,-0.47416 2.33812,-0.0779 c 1.285968,-0.0429 2.606088,-0.0376 2.933599,0.0116 1.084756,0.16295 1.283222,-0.0692 1.454656,-1.70183 0.192101,-1.82944 1.051906,-5.44488 1.731125,-7.27932 0.273978,-0.73996 0.495284,-1.38252 0.491787,-1.42792 -0.0036,-0.0454 0.355814,-0.81879 0.798454,-1.71866 0.44264,-0.89987 0.801772,-1.698 0.798077,-1.77364 -0.0063,-0.12712 0.91849,-1.82626 2.427909,-4.46125 1.172764,-2.0473 3.205232,-5.06264 8.791292,-13.04261 1.370803,-1.95825 3.133253,-5.19459 3.558343,-6.53408 0.722,-2.27505 0.87348,-4.43435 0.52225,-7.44394 -0.31364,-2.6875 -0.63241,-4.25511 -2.73866,-13.46861 -1.406613,-6.15293 -2.242823,-10.65215 -2.725523,-14.66458 -0.091,-0.75687 -0.24627,-1.23783 -0.41284,-1.2792 -0.36956,-0.0918 -1.34785,1.18422 -1.71234,2.23341 -1.22006,3.51204 -1.2133,7.53776 0.0273,16.25312 0.18819,1.32199 -0.17233,1.34973 -0.58159,0.0447 -0.45526,-1.45157 -0.8287,-4.00947 -1.18801,-8.13728 -0.23706,-2.72332 -0.35148,-3.3784 -0.61489,-3.52009 -0.952878,-0.51254 -1.570489,0.5862 -2.300125,4.09192 -0.07013,0.33681 0.02156,4.22064 0.132117,5.59598 0.04085,0.50873 0.322117,2.29809 0.62497,3.97635 0.349474,1.93662 0.484486,3.12857 0.36955,3.26267 -0.468295,0.54636 -1.538781,-3.81076 -1.819803,-7.40702 -0.22308,-2.8547 -0.485695,-3.55731 -1.306028,-3.49419 -0.411145,0.0317 -0.59536,0.26018 -0.966724,1.19933 -0.252332,0.63814 -0.52157,1.67487 -0.598306,2.30386 -0.194726,1.59617 0.127715,5.18502 0.639343,7.11589 0.731988,2.76252 1.405285,6.28233 1.238875,6.47649 -0.287632,0.33559 -1.053422,-1.71441 -1.597793,-4.27726 -0.610577,-2.87457 -0.689513,-3.1539 -1.086808,-3.84597 -0.811876,-1.41424 -1.840179,-0.6001 -2.179427,1.72551 -0.190054,1.30284 0.03505,4.26571 0.47596,6.26475 0.962254,4.36278 1.172031,5.50847 1.05135,5.74211 -0.166447,0.32224 -1.353629,-2.73237 -1.65108,-4.24823 -0.120939,-0.61632 -0.28028,-1.28424 -0.354085,-1.48425 -0.219271,-0.59422 -0.973865,-0.26491 -1.328135,0.57959 -0.272429,0.64941 -0.270677,1.15368 0.01331,3.82516 0.195257,1.83693 0.573314,4.01678 0.938015,5.40856 0.336015,1.28229 0.630541,2.55927 0.654503,2.83774 0.08121,0.94358 -0.589941,0.0422 -1.168494,-1.56938 -0.295719,-0.82372 -0.71036,-1.97299 -0.921431,-2.55395 -0.645959,-1.77794 -1.484372,-1.10671 -1.721513,1.37824 -0.123122,1.29015 -0.07942,1.82952 0.255567,3.1546 0.222247,0.87911 0.550941,2.23855 0.730425,3.021 0.179485,0.78245 0.608593,2.14249 0.953579,3.02233 0.344979,0.87983 0.555017,1.68395 0.466756,1.78693 -0.304262,0.355 -2.088476,-2.63344 -2.164847,-3.62598 -0.04699,-0.61052 -0.614813,-1.25052 -0.974965,-1.09887 -0.51395,0.21641 -0.91359,1.25674 -0.929445,2.41951 -0.01773,1.30169 0.465702,3.16247 1.571153,6.04718 0.39528,1.0315 0.546472,1.67202 0.427457,1.81088 -0.190609,0.2224 -0.819381,-0.81512 -1.652314,-2.72643 -1.075961,-2.46895 -2.030248,-1.06939 -1.488541,2.1831 0.150838,0.90566 0.533632,2.40286 0.850644,3.3271 0.375708,1.09537 0.511751,1.75588 0.390746,1.89704 -0.12101,0.1412 -0.318601,-0.0435 -0.567505,-0.53035 -0.210017,-0.41083 -0.386999,-0.81386 -0.393291,-0.89558 -0.0063,-0.0817 -0.201314,-0.29564 -0.43338,-0.47529 -0.401933,-0.31116 -0.440692,-0.30479 -0.816955,0.13421 -0.325526,0.37981 -0.375369,0.71611 -0.283359,1.91185 0.1323,1.7194 0.455815,2.80205 1.464741,4.90171 0.505269,1.05152 0.68537,1.62896 0.555374,1.78063 -0.130002,0.15168 -0.396832,-0.07 -0.822805,-0.68352 -1.437084,-2.06985 -1.849453,0.0678 -0.529899,2.74693 0.415068,0.84271 0.710262,1.584 0.655998,1.64731 -0.224838,0.26232 -0.99284,-0.62928 -1.611154,-1.87045 -0.916542,-1.83981 -1.048503,-3.3385 -0.39362,-4.47018 0.4463,-0.77122 0.465045,-0.92903 0.218315,-1.83768 -0.331048,-1.21919 -0.565002,-3.64151 -0.450983,-4.66951 0.04751,-0.42831 0.326061,-1.03172 0.636318,-1.3784 0.530799,-0.5931 0.542957,-0.66846 0.318998,-1.97732 -0.233461,-1.36438 -0.149646,-2.15793 0.401433,-3.80087 0.14687,-0.43786 0.38851,-0.80547 0.536979,-0.81688 0.441811,-0.034 0.590902,-0.67385 0.564322,-2.42187 -0.03028,-1.99267 0.432065,-3.49136 1.231617,-3.9921 l 0.555136,-0.34767 -0.207924,-2.84654 c -0.179567,-2.4584 -0.157826,-2.98532 0.159474,-3.8642 0.275211,-0.76232 0.541894,-1.10686 1.062847,-1.37318 0.76852,-0.39287 0.884893,-0.84779 0.700072,-2.73678 -0.243788,-2.49175 0.342261,-5.10882 1.195007,-5.33643 0.677437,-0.1808 0.873229,-0.5351 0.802642,-1.45242 -0.09305,-1.20931 0.08635,-4.00731 0.298778,-4.65957 0.687631,-2.11147 1.040189,-2.44595 2.372955,-2.25129 0.580714,0.0848 0.720715,0.0592 0.536999,-0.0983 -0.314201,-0.2693 -0.448208,-1.9471 -0.283838,-3.5538 0.342976,-3.35256 1.268309,-5.15097 2.707299,-5.2617 0.796154,-0.0613 0.871239,-0.16194 0.981741,-1.31646 0.22903,-2.39281 1.698046,-4.88681 2.728993,-4.6331 1.064019,0.26184 1.270629,0.13511 1.364289,-0.83682 0.23883,-2.47839 1.17326,-4.60422 2.26794,-5.15959 l 0.63044,-0.31984 -0.29115,-1.94873 c -2.72983,-18.27121 -0.29207,-18.15507 -1.19738,-24.0541 -0.23721,-1.54565 -0.90208,-3.00793 -1.35194,-2.97331 -0.43238,0.0333 -1.597615,1.478 -2.023022,2.50828 -0.518162,1.25489 -0.939392,3.28536 -1.313507,6.3315 -0.28005,2.28021 -0.261853,2.8334 0.361355,10.98539 0.360942,4.72134 0.60167,8.58845 0.534958,8.59359 -0.227206,0.0175 -0.696994,-1.49359 -0.942026,-3.02983 -0.134426,-0.84279 -0.31496,-1.80613 -0.401192,-2.14075 -0.08618,-0.33453 -0.559368,-5.50999 -1.05149,-11.50094 -0.755904,-9.20226 -0.963957,-11.11197 -1.340643,-12.306 -0.245238,-0.77734 -0.447416,-1.43326 -0.449292,-1.45759 -0.0021,-0.0243 -0.196065,-0.12904 -0.43154,-0.23268 -0.680392,-0.29945 -1.132071,0.15176 -1.737346,1.73555 -0.489136,1.27991 -1.058277,4.0872 -1.24609,6.14637 -0.21817,2.39204 0.02756,7.36887 0.626449,12.68823 0.645632,5.73442 1.053849,7.95212 2.16097,11.73991 0.668953,2.2887 0.652769,3.01849 -0.05059,2.28005 -0.452006,-0.47456 -0.824753,-1.3851 -1.275165,-3.11497 -0.148659,-0.57093 -0.392433,-1.4634 -0.541724,-1.98327 -0.25844,-0.89993 -0.733253,-3.356 -1.923715,-9.95078 -0.293668,-1.62679 -0.740955,-4.43098 -0.993981,-6.23153 -0.253026,-1.80055 -0.51816,-3.54847 -0.589179,-3.88426 -0.07102,-0.33579 -0.240219,-1.20692 -0.376001,-1.93586 -0.730938,-3.9242 -2.7992,-4.26999 -3.846942,-0.64316 -0.739247,2.55897 -0.604521,7.15764 0.417382,14.24697 0.275689,1.91256 0.654914,4.21011 0.842722,5.10567 1.242865,5.92656 1.682583,7.8965 2.415102,10.81964 0.453405,1.80933 0.762218,3.36221 0.686253,3.45083 -0.513278,0.59885 -1.529401,-2.06435 -3.039827,-7.96718 -1.154279,-4.51097 -1.777169,-7.01855 -2.243298,-9.0309 -0.258867,-1.11759 -0.575777,-2.34964 -0.704236,-2.73789 -0.12846,-0.38824 -0.550202,-2.03104 -0.937199,-3.65065 -0.757386,-3.16974 -1.525666,-5.20052 -2.075753,-5.48683 -0.678639,-0.35323 -1.342395,0.10319 -1.706361,1.17334 -0.466,1.37014 -0.48802,2.94211 -0.11242,8.02569 0.295904,4.00503 0.764222,7.23898 1.48101,10.22707 0.640431,2.66979 2.676915,9.94992 2.873473,10.27222 0.115052,0.18868 0.222053,0.51021 0.237773,0.71452 0.01573,0.20432 0.313225,1.13665 0.66111,2.07185 0.872354,2.34506 1.168437,3.70577 0.786144,3.61284 -0.288002,-0.07 -1.173281,-2.0164 -2.072622,-4.55689 -0.254795,-0.71978 -0.728235,-1.93979 -1.052085,-2.71113 -0.323846,-0.77134 -0.841936,-2.08097 -1.151309,-2.9103 -0.309372,-0.82933 -0.731381,-1.92823 -0.937788,-2.442 -0.206414,-0.51376 -0.441612,-1.19369 -0.522667,-1.51093 -0.476312,-1.8643 -1.644509,-4.21966 -2.170582,-4.37643 -0.880355,-0.26233 -1.264144,1.09712 -1.141422,4.04311 0.116567,2.79971 1.473374,8.81453 2.820149,12.50246 0.383847,1.05111 0.933509,2.59099 1.22148,3.42197 0.47144,1.36043 1.289519,3.2667 2.105051,4.90512 0.801726,1.6107 0.911908,1.91184 0.816573,2.23178 -0.323152,1.08442 -2.095709,-2.06384 -4.096161,-7.27523 -0.525662,-1.36941 -1.250869,-3.25821 -1.611571,-4.19735 -1.526697,-3.97496 -2.287155,-5.16253 -3.096363,-4.83544 -0.763179,0.30847 -1.002716,1.50284 -0.801799,3.99788 0.262868,3.26423 1.328551,6.98482 3.043005,10.62393 0.181007,0.3842 0.499761,1.10422 0.708355,1.60006 0.965587,2.29526 2.19576,4.89245 2.883678,6.08815 0.682506,1.18629 0.867595,2.10164 0.373328,1.84634 -0.621285,-0.32091 -4.692979,-8.30691 -6.725233,-13.19048 -0.766726,-1.84249 -1.162212,-2.28231 -1.596559,-1.77554 -0.239285,0.27918 -0.160961,0.61866 0.612762,2.65584 0.823716,2.1688 1.030674,2.86379 1.472599,4.94512 0.09162,0.43148 0.300433,2.35639 0.464035,4.27757 l 0.297462,3.49307 0.973808,1.23232 c 0.535596,0.67777 0.977546,1.28088 0.982116,1.34024 0.0046,0.0593 0.201221,0.34013 0.43701,0.62392 0.463528,0.5579 2.135697,3.2448 2.152107,3.45809 0.03701,0.48115 -1.402376,-0.61358 -2.745363,-2.08797 -1.150985,-1.2636 -1.43493,-1.48781 -1.610904,-1.27201 -0.09896,0.12137 -0.158061,1.28928 -0.131337,2.59537 l 0.04858,2.3747 1.552537,1.43169 c 0.853899,0.78742 1.826041,1.89339 2.160327,2.4577 0.710699,1.19975 0.723146,1.25002 0.317198,1.28125 -0.169625,0.0131 -0.314263,-0.0524 -0.321424,-0.14553 -0.0199,-0.25872 -3.045555,-2.90453 -3.2992,-2.88501 -0.366824,0.0282 -0.418142,0.97059 -0.163124,2.99565 l 0.241171,1.91508 1.804304,1.50491 c 0.992373,0.82769 1.81617,1.65902 1.830663,1.8474 0.03836,0.49836 -0.205772,0.4448 -1.171776,-0.25712 -1.179084,-0.85675 -1.822585,-1.11907 -2.061484,-0.84034 -0.108287,0.12634 -0.107577,0.85135 0.0015,1.66613 l 0.19334,1.44247 1.487302,1.26845 c 1.33784,1.14097 1.827895,1.8005 1.364343,1.83618 -0.09111,0.007 -0.496971,-0.19444 -0.901905,-0.44766 -0.404941,-0.2532 -0.915236,-0.44662 -1.133999,-0.42979 -0.360695,0.0278 -0.376854,0.13014 -0.173422,1.09916 0.479202,2.28256 0.726384,2.73997 1.915345,3.54439 1.71414,1.15975 1.997197,1.85494 0.52539,1.29038 -0.483588,-0.18549 -0.842742,-0.21922 -0.953867,-0.0896 -0.152966,0.17846 0.968699,3.85363 1.325272,4.3423 0.0589,0.0808 0.243527,0.71865 0.410287,1.41762 0.16676,0.69898 0.522079,1.85898 0.789589,2.57777 0.267514,0.7188 0.584209,1.8578 0.703769,2.5311 0.119555,0.67331 0.368902,2.00364 0.554107,2.95626 0.469764,2.41631 0.535751,3.61549 0.308592,5.60792 -0.224035,1.96505 -0.603282,3.16013 -1.319276,4.15732 -0.784679,1.09286 -1.24266,0.84884 -0.571763,-0.30462 0.183844,-0.31609 0.51189,-1.19332 0.728991,-1.94941 0.348687,-1.21438 0.368167,-1.69827 0.167024,-4.14926 -0.226336,-2.75795 -0.65313,-4.53306 -2.441163,-10.15318 -0.83959,-2.63899 -1.813656,-6.0047 -2.22497,-7.68798 -0.231904,-0.94904 -0.5467,-2.18125 -0.699554,-2.73824 -0.152855,-0.557 -0.41423,-1.93293 -0.580831,-3.05762 -0.166606,-1.1247 -0.345556,-2.10599 -0.397671,-2.18067 -0.05212,-0.0746 -0.327023,-3.07827 -0.610901,-6.67465 -0.45906,-5.81578 -0.568297,-8.18145 -0.500132,-10.83101 0.011,-0.42706 -0.05293,-2.5162 -0.142037,-4.64253 -0.234138,-5.58822 -0.604926,-7.01643 -3.487653,-13.43411 -2.499749,-5.56508 -3.212227,-7.14611 -3.693208,-8.19547 -0.277,-0.60431 -0.713969,-1.64099 -0.971052,-2.30371 -0.257079,-0.66273 -0.751026,-1.88116 -1.097652,-2.70762 -0.346635,-0.82646 -0.842289,-2.06802 -1.101456,-2.75902 -0.492939,-1.3143 -0.744536,-1.48065 -1.250621,-0.82691 -1.372276,1.77265 -1.224547,5.21053 0.449205,10.45402 0.763503,2.39188 1.133796,3.25919 2.328861,5.45473 0.997503,1.8326 1.112625,2.59692 0.254626,1.69058 -1.214302,-1.28272 -3.18367,-5.60823 -4.207069,-9.24039 -0.319196,-1.13285 -0.631506,-2.12984 -0.694026,-2.21552 -0.224886,-0.30819 -1.109141,-0.0701 -1.483651,0.3995 -0.210234,0.26361 -0.427341,0.81547 -0.482453,1.22635 -0.16148,1.20383 0.228315,4.46077 0.733962,6.13265 0.514276,1.70042 2.303033,5.77441 2.736193,6.23185 0.407526,0.43036 1.367705,2.59308 1.251301,2.81844 -0.196311,0.38005 -0.41152,0.20522 -1.242588,-1.00943 -0.980464,-1.43302 -2.276289,-4.06836 -3.258115,-6.62609 -0.381709,-0.99438 -0.738821,-1.92087 -0.793574,-2.05885 -0.251767,-0.63441 -1.249404,0.14285 -1.774049,1.38218 -0.471264,1.11323 -0.148556,4.15771 0.69191,6.52769 0.72517,2.04485 2.118756,4.64561 3.593169,6.70572 1.760271,2.45952 0.850946,2.67613 -1.009524,0.24048 -1.132255,-1.48229 -2.004994,-2.97853 -2.902448,-4.976 -0.875496,-1.9486 -1.03143,-2.09911 -1.63722,-1.58034 -0.940211,0.80514 -0.874796,3.68167 0.142027,6.24544 0.85397,2.15315 2.405802,4.95575 3.764114,6.79798 0.754662,1.02353 0.980411,1.62681 0.619137,1.65461 -0.373591,0.0287 -2.02265,-1.97161 -3.188937,-3.86827 -1.370338,-2.2285 -1.657723,-2.50472 -2.227501,-2.14096 -0.752013,0.4801 -0.757658,2.37932 -0.01243,4.18184 0.782376,1.89238 2.716039,5.11191 3.916583,6.52106 1.198751,1.40703 1.309396,1.75366 0.46068,1.44314 -0.440552,-0.16117 -1.022818,-0.75373 -2.934441,-2.98631 -0.692459,-0.80873 -1.113172,-0.89029 -1.386681,-0.26884 -0.772911,1.75616 1.939534,6.63791 5.337842,9.60681 0.680119,0.59419 0.726694,1.04451 0.101896,0.98524 -0.433936,-0.0412 -1.402783,-0.89127 -2.803149,-2.45964 -1.896319,-2.1238 -3.269514,-1.15502 -2.226472,1.57076 0.616052,1.60993 3.048044,4.60218 5.133701,6.31635 0.500266,0.41115 0.918805,0.86755 0.930089,1.01423 0.0453,0.58892 -0.691831,0.24574 -2.386379,-1.11096 -1.42509,-1.14097 -1.888633,-1.40484 -2.320317,-1.3209 -0.499407,0.0971 -0.535359,0.18135 -0.484333,1.13476 0.03856,0.7206 0.1817,1.16824 0.476637,1.49067 0.231835,0.25343 0.429073,0.559 0.438305,0.67901 0.0453,0.58834 2.787501,3.49263 5.062977,5.36219 1.150089,0.94493 1.272446,1.10889 0.943877,1.26486 -0.433001,0.20554 -0.855317,0.0179 -2.598761,-1.15425 -0.974061,-0.65492 -1.292066,-0.77464 -1.55063,-0.58369 -0.551511,0.40723 -0.421412,1.29186 0.38982,2.65055 0.950349,1.59172 2.67176,2.96395 5.177293,4.12717 1.271223,0.59017 1.817363,0.95185 1.788594,1.18447 -0.06039,0.48829 -1.092213,0.41025 -2.645946,-0.20008 -1.561519,-0.61339 -1.711406,-0.61379 -1.664509,-0.005 0.0454,0.59032 1.115526,2.01827 2.102038,2.80499 0.871104,0.69469 3.553336,2.1619 4.238274,2.3184 0.524454,0.11983 0.600095,0.28903 0.290629,0.6501 -0.219132,0.25566 -1.74637,0.0705 -2.631407,-0.319 -0.343931,-0.15136 -0.496415,-0.13119 -0.650159,0.086 -0.53179,0.75134 1.590667,2.44624 3.716755,2.96801 1.013847,0.24882 1.742729,0.65673 1.615083,0.90384 -0.0585,0.11326 -0.56641,0.24132 -1.128692,0.28459 -1.345064,0.1035 -1.480691,0.51034 -0.469136,1.40727 0.706663,0.62658 3.79029,2.04105 4.874657,2.236 0.900708,0.16194 0.432718,0.64009 -0.682753,0.69757 -1.452136,0.0748 -3.88627,-0.88735 -5.235574,-2.06954 -0.980945,-0.85946 -1.059022,-0.9958 -1.134884,-1.9817 -0.07754,-1.00776 -0.123158,-1.08194 -0.947418,-1.54063 -1.699062,-0.94551 -2.393103,-2.19042 -2.045892,-3.66976 0.08523,-0.36316 -0.183751,-0.72171 -1.35584,-1.80729 -1.618856,-1.49932 -2.085309,-2.4171 -1.995525,-3.92628 0.04796,-0.80671 -0.02232,-0.98495 -0.617806,-1.56642 -0.36958,-0.36086 -1.008926,-1.20784 -1.420772,-1.88217 -0.60924,-0.99754 -0.771549,-1.48254 -0.870853,-2.60224 -0.07512,-0.84708 -0.03085,-1.48264 0.11517,-1.65308 0.364841,-0.42587 0.253181,-0.78977 -0.488143,-1.59091 -0.794607,-0.85869 -1.67168,-2.43481 -2.149572,-3.8628 -0.374716,-1.11968 -0.245336,-2.51206 0.280784,-3.02172 0.395233,-0.38288 0.312123,-0.96787 -0.226263,-1.5926 -0.609112,-0.70681 -1.446194,-2.65246 -1.512631,-3.51587 -0.07695,-1.00004 0.377035,-2.20636 0.949161,-2.52213 0.603674,-0.33318 0.602778,-0.34454 -0.144695,-1.84285 -0.677715,-1.35847 -1.114386,-3.37346 -0.986039,-4.55004 0.05059,-0.46375 0.313702,-1.01811 0.656559,-1.38331 l 0.572143,-0.60942 -0.495171,-1.18178 c -1.522554,-3.63372 -1.554002,-6.10179 -0.08593,-6.74375 0.548694,-0.23993 0.574477,-0.3093 0.406745,-1.09437 -0.518994,-2.42916 -0.608943,-3.25765 -0.502796,-4.63111 0.140172,-1.81363 0.467024,-2.65488 1.232358,-3.1718 l 0.574661,-0.38814 -0.165948,-2.17371 c -0.204952,-2.68456 0.04673,-3.82326 1.087339,-4.91969 0.412922,-0.43506 0.924139,-0.80437 1.136039,-0.82068 0.349982,-0.0269 0.376092,-0.25256 0.285055,-2.46334 -0.08558,-2.07885 -0.04056,-2.54925 0.30908,-3.22611 0.53942,-1.04433 1.268206,-1.69256 1.962978,-1.74602 0.466503,-0.0359 0.57698,-0.15553 0.642447,-0.69575 0.04349,-0.35882 0.05886,-0.91493 0.03418,-1.23579 -0.07883,-1.02449 0.572508,-2.79903 1.354159,-3.68933 0.574276,-0.65409 0.697178,-0.92564 0.529477,-1.16982 -0.120169,-0.17425 -0.454585,-1.04373 -0.743199,-1.93153 -0.288612,-0.8878 -0.828876,-2.47494 -1.20059,-3.52698 -1.019918,-2.88664 -1.723995,-5.14546 -2.234923,-7.17016 -0.253429,-1.00426 -0.646564,-2.46311 -0.873641,-3.2419 -0.22707,-0.77879 -0.552955,-2.10322 -0.724184,-2.94318 -1.657777,-8.13213 -2.296121,-10.01276 -3.45383,-10.17521 -1.740416,-0.24421 -2.408079,1.82012 -2.296982,7.102 0.04642,2.20739 0.890261,7.27813 1.767079,10.61869 0.672578,2.56246 1.199838,4.4339 1.59694,5.6681 0.232143,0.72152 0.522952,1.67637 0.646231,2.12189 0.123282,0.44552 0.350726,1.12604 0.505425,1.51226 1.078845,2.69341 1.363753,3.82465 0.970863,3.85489 -0.400375,0.0308 -1.534245,-2.42893 -2.854251,-6.19182 -0.252554,-0.71994 -0.550355,-1.53465 -0.661777,-1.81046 -0.284161,-0.70341 -1.128106,-3.51325 -2.094701,-6.97413 -1.147453,-4.10845 -2.928726,-9.52733 -3.742004,-11.38369 -0.748055,-1.70749 -1.141792,-2.27405 -1.85212,-2.6651 -1.054358,-0.58045 -1.599449,0.24645 -1.887225,2.86295 -0.17718,1.61092 -0.144751,2.2058 0.251126,4.60688 0.250013,1.5164 0.662166,3.67181 0.915894,4.7898 0.253731,1.11799 0.538222,2.39907 0.632204,2.84684 0.187207,0.8919 0.621992,2.44029 0.99481,3.54281 0.25713,0.76041 0.770999,2.43451 1.488463,4.84916 0.449344,1.5123 1.46026,4.46642 2.162888,6.32046 0.203776,0.53771 0.378608,1.08302 0.38852,1.21182 0.0099,0.12879 0.477624,1.36182 1.039366,2.74005 0.959696,2.35463 1.145823,3.21056 0.641512,2.95007 -0.508152,-0.26248 -1.464522,-2.36075 -3.233646,-7.09462 -0.309913,-0.82929 -0.662343,-1.73287 -0.783173,-2.00795 -0.340363,-0.77486 -1.71564,-4.59755 -2.099688,-5.83623 -0.189453,-0.61105 -0.605282,-1.78895 -0.924068,-2.61756 -0.318782,-0.82861 -0.718082,-1.91471 -0.887331,-2.41357 -0.621806,-1.83274 -1.393528,-3.9481 -1.733137,-4.75068 -0.510079,-1.20544 -1.768234,-3.30848 -2.0779,-3.47327 -1.922425,-1.023 -1.948856,3.52542 -0.06334,10.9005 1.295561,5.0675 1.913289,7.18114 2.807997,9.60791 1.437891,3.90007 1.742179,4.74769 1.863292,5.19039 0.199036,0.72751 1.61445,3.96714 2.791052,6.38824 1.078075,2.21833 1.301426,2.93719 0.984475,3.16846 -0.273971,0.19992 -1.095773,-0.91546 -1.888329,-2.56289 -0.411988,-0.85639 -0.853975,-1.73514 -0.982193,-1.95278 -0.223131,-0.37875 -0.646528,-1.34416 -2.237453,-5.10176 -0.396453,-0.93637 -0.984332,-2.42679 -1.306393,-3.31201 -0.322066,-0.88523 -0.752393,-2.06202 -0.956276,-2.61508 -0.203884,-0.55308 -0.540367,-1.55095 -0.747737,-2.21749 -0.375733,-1.20774 -1.327851,-3.97948 -2.135459,-6.21663 -0.99084,-2.74469 -2.107514,-4.14422 -2.862663,-3.58778 -0.701219,0.51671 -0.903082,1.6896 -0.713917,4.14806 0.09879,1.28391 0.322432,2.8874 0.496981,3.56333 0.174544,0.67592 0.447055,1.73085 0.605576,2.34429 0.377034,1.45898 2.331986,7.5886 2.993789,9.38679 0.284982,0.77433 0.625593,1.72535 0.756911,2.11337 0.52907,1.56337 2.184059,5.62389 2.942374,7.21913 0.443406,0.93278 0.940546,2.07723 1.104762,2.54323 0.16421,0.466 0.382119,0.89043 0.484235,0.94318 0.102117,0.0527 0.26661,0.3465 0.365539,0.65277 0.09894,0.30628 0.574528,1.38784 1.056883,2.40346 0.484616,1.0204 0.830085,2.00404 0.77214,2.19849 -0.138048,0.46327 -0.329243,0.2759 -1.318012,-1.29158 -1.230099,-1.95006 -2.580727,-4.73827 -4.485091,-9.25895 -0.510557,-1.21197 -1.070722,-2.51838 -1.244809,-2.90311 -0.174091,-0.38474 -0.495504,-1.15109 -0.714246,-1.70301 -0.889083,-2.24329 -2.480281,-5.62892 -3.080786,-6.55507 -1.883127,-2.9043 -3.243929,-1.70306 -2.677528,2.36355 0.333449,2.39409 0.922114,4.7539 1.674539,6.71284 2.329005,6.06356 5.100382,11.954 7.355572,15.63395 0.732287,1.19491 1.756329,2.86283 2.275646,3.70649 0.633033,1.02839 0.881315,1.60731 0.75335,1.7566 -0.255654,0.29828 -0.58351,-0.0537 -2.164322,-2.32391 -1.434416,-2.05989 -2.998474,-4.61853 -5.711036,-9.34262 -2.232309,-3.8877 -3.207105,-4.9543 -3.999464,-4.37612 -0.348629,0.25438 -0.154478,3.23462 0.287499,4.41309 0.165855,0.44225 0.453831,1.30425 0.639937,1.91556 0.345511,1.13492 1.210919,3.07804 2.003844,4.49927 2.179884,3.90723 3.146535,5.53409 3.827633,6.44188 0.438032,0.58382 0.868858,1.19553 0.957392,1.35934 0.08853,0.16381 0.725732,0.95241 1.416001,1.75243 2.438643,2.82639 3.021844,3.69707 2.503117,3.73698 -0.612146,0.0471 -5.152087,-5.157 -7.775515,-8.91302 -2.530307,-3.6227 -4.741989,-4.16047 -4.096957,-0.99618 0.209678,1.02859 0.416441,1.49919 1.69899,3.86694 1.706665,3.15073 4.579701,6.6081 8.131548,9.78539 2.234342,1.99873 2.778456,2.61417 2.337723,2.64419 -0.638671,0.0435 -3.635747,-2.30829 -6.83929,-5.36677 -2.436115,-2.32579 -4.092707,-3.71808 -4.396121,-3.69473 -0.04843,0.004 -0.259644,0.11632 -0.469363,0.25021 -0.466016,0.29752 -0.426871,1.444 0.08919,2.61219 1.700312,3.84895 4.974602,7.44971 9.105145,10.01299 0.978492,0.60721 2.419807,1.49901 3.202927,1.98175 1.362071,0.83963 1.833202,1.45691 1.151956,1.50933 -0.503263,0.0386 -1.540829,-0.45557 -3.531728,-1.68255 -2.428886,-1.49688 -3.128039,-1.8228 -3.515586,-1.63882 -0.514959,0.24444 -0.312289,1.00923 0.62031,2.34075 1.686665,2.40813 4.215456,4.42605 7.218701,5.76037 1.812875,0.80544 1.872757,0.85063 1.735908,1.30988 -0.207869,0.69758 -1.638583,0.24617 -4.113476,-1.29785 -1.5237,-0.9506 -2.564973,-1.08107 -2.505949,-0.31398 0.0807,1.04875 2.539665,3.77531 4.636124,5.14063 0.836028,0.54445 3.529509,1.71023 4.973451,2.15257 0.450279,0.13793 0.69911,0.35013 0.719372,0.61348 0.02658,0.34543 -0.06541,0.39032 -0.64784,0.31614 -0.905186,-0.11532 -2.140261,-0.42719 -3.392185,-0.8566 -1.796038,-0.61603 -2.840766,-0.22482 -2.45783,0.92036 0.09813,0.29345 0.82609,1.07772 1.617699,1.74279 1.168125,0.98144 1.939093,1.40606 4.092166,2.25393 1.578688,0.62167 2.662146,1.16509 2.675764,1.34207 0.03121,0.40587 -0.422825,0.40904 -2.07221,0.0146 -2.297157,-0.54947 -3.084889,0.0705 -1.923493,1.51408 0.957896,1.19055 2.992082,2.15502 5.834035,2.76607 1.452308,0.31225 1.625308,0.40134 1.660211,0.85493 0.03249,0.42194 -0.03958,0.4932 -0.432454,0.42744 -2.444319,-0.40907 -4.126827,-0.22921 -4.505615,0.48167 -0.237502,0.44573 -0.130361,0.66195 0.684295,1.38104 0.845796,0.74656 2.524653,1.47664 3.727434,1.62092 1.848753,0.22179 2.32901,0.36881 2.290231,0.70116 -0.03136,0.26895 -0.342703,0.36112 -1.599418,0.47355 -1.68679,0.1509 -2.282597,0.48159 -2.122612,1.1781 0.201482,0.87721 2.517717,1.62177 4.72724,1.51958 1.351088,-0.0625 1.570874,0.43739 0.387778,0.88194 -0.446638,0.16782 -1.18456,0.44539 -1.639821,0.61683 -1.018817,0.38362 -1.75714,1.03695 -1.719831,1.52184 0.06988,0.90822 1.864074,1.52818 3.956631,1.36717 1.177595,-0.0906 1.521974,-0.0509 1.539521,0.177 0.02817,0.36576 -0.484144,0.9827 -0.838641,1.01 -0.383645,0.0296 -2.51289,1.40439 -3.026578,1.95429 -1.020896,1.09287 0.274691,1.97935 2.628856,1.79875 1.247744,-0.0957 1.391014,-0.0653 1.419286,0.30216 0.01923,0.25016 -0.259315,0.62505 -0.718339,0.96675 -0.968852,0.72118 -1.691412,1.73684 -1.803399,2.53492 -0.104714,0.74624 0.596583,2.09589 1.117659,2.15094 0.195808,0.0207 1.077,-0.8291 2.117878,-2.04237 4.565312,-5.32139 7.255248,-6.97579 11.952264,-7.35093 2.233587,-0.1784 2.327232,-0.16725 3.897366,0.46393 1.890976,0.76017 3.240853,1.93881 4.261798,3.72121 0.37796,0.65986 0.786793,1.22599 0.908512,1.25807 0.121715,0.032 0.699862,-0.0329 1.284765,-0.14446 0.864057,-0.16472 1.214081,-0.36472 1.866773,-1.0666 0.748044,-0.80438 0.795017,-0.93127 0.682711,-1.84429 -0.10317,-0.8387 -0.03635,-1.09277 0.462233,-1.7572 0.32056,-0.4272 0.780479,-0.85514 1.022041,-0.95096 0.977463,-0.38777 1.462255,-0.99913 1.529346,-1.92864 0.09358,-1.29643 1.026313,-2.18883 2.630785,-2.51705 1.038256,-0.2124 1.199479,-0.31851 1.166402,-0.76772 -0.0564,-0.7659 0.296285,-1.92367 0.592933,-1.94649 0.255248,-0.0197 0.304406,0.20128 0.282819,1.27086 -0.04421,2.19112 -0.03008,2.15919 -1.043022,2.35299 -0.499437,0.0956 -1.311236,0.45364 -1.804006,0.79577 -0.872581,0.60584 -0.890975,0.64276 -0.705492,1.41625 l 0.190452,0.79421 -1.105559,0.63153 c -1.239251,0.70789 -2.087375,1.5276 -2.052292,1.98353 0.02529,0.32863 0.52596,0.82766 0.932299,0.92924 0.434203,0.10854 0.0774,0.73863 -0.703431,1.24223 -1.547589,0.99811 -1.816936,1.2617 -1.785543,1.74742 0.0099,0.15344 0.2863,0.23696 0.684932,0.20697 1.272405,-0.0957 4.388049,0.59128 5.350901,1.17985 0.379975,0.23229 0.753729,0.41748 0.830563,0.41158 0.540808,-0.0417 6.330876,4.58214 7.924226,6.32799 1.23877,1.35736 1.62015,1.64857 2.33555,1.78337 1.43585,0.27054 1.57557,0.0101 0.55466,-1.03331 -0.49126,-0.50212 -1.11692,-1.0819 -1.39036,-1.28835 -0.82144,-0.62024 -2.46802,-2.61987 -2.50005,-3.0361 -0.0181,-0.23531 0.11425,-0.39968 0.33556,-0.41672 0.47094,-0.0362 1.32286,0.46686 1.3482,0.79619 0.0108,0.13998 0.7791,1.05364 1.70738,2.03035 1.52208,1.60146 1.69453,1.86335 1.7564,2.66735 0.0486,0.63042 -0.0435,1.00981 -0.31398,1.29531 -0.47168,0.49782 -0.46141,0.90223 0.0254,1.00226 0.502693,0.10324 2.884933,-0.27426 3.644213,-0.57751 z m -3.566983,-7.80722 c -0.38558,-0.3305 -0.42868,-1.36988 -0.0639,-1.54301 0.16546,-0.0785 0.548933,-0.006 0.852143,0.1607 0.74893,0.41232 0.74759,1.37167 -0.002,1.5183 -0.28095,0.055 -0.634673,-0.006 -0.786043,-0.13599 z M 64.893265,217.71176 c -0.92248,-0.2538 -1.263724,-0.42086 -2.063748,-1.01045 -0.872385,-0.64289 -1.495706,-1.5073 -1.376171,-1.90844 0.08393,-0.28164 0.19354,-0.25895 0.699023,0.14479 1.286975,1.02791 3.326517,1.80369 5.107054,1.94259 0.893675,0.0696 1.21534,0.4681 0.609972,0.75548 -0.525869,0.24962 -2.190531,0.29215 -2.97613,0.076 z"
       id="path1"
       sodipodi:nodetypes="sssssssssscsscssssssssssssssssssssssssssssssssssscssscscsscsssssssssssscssssssssssssssssssssssssssssssssssssssssssssssssssssssssssssssssssssssssssssssscsssssscssssssssssscccssssssscssssssssssscsssssscssssssssssssssssssssssssssssssssssssssssssssssssssssssssssssssssssssscssssssssssssssscssssssssssscssssssssssssssssssssssssssssssssssscssssssssssssssssscssssssscsssssscssssscssssssssssssssssssssssssssssssssssssssssssssssssssssssssssssssssssssssssssssssssssssssssssssssssssssssssssssssscssssscssscssssssssssssssssssssssssssssssssssssssssssssssssssssssssssssssssssssssssssssssssssssssssssssssssssssssssssssssssssssssssssssssssssssssssssssscsssssssssssscssssssssssssssssssscccsssccsssssss" />
    <text
       xml:space="preserve"
       style="text-align:start;writing-mode:lr-tb;direction:ltr;text-anchor:start;fill:#ff00ff"
       x="48.963867"
       y="810.62402"
       id="text1"><tspan
         sodipodi:role="line"
         id="tspan1"
         x="48.963867"
         y="810.62402" /></text>
    <path
       style="font-size:57.7593px;font-family:Copperplate;-inkscape-font-specification:Copperplate;stroke-width:0.154658"
       d="m 25.204699,208.10923 q 1.395635,0 2.434938,-0.23755 1.039302,-0.23755 1.722273,-0.83145 0.68297,-0.62357 1.009607,-1.63319 0.356334,-1.00961 0.356334,-2.55372 0,-1.5441 -0.356334,-2.55371 -0.326637,-1.0096 -1.009607,-1.6035 -0.682971,-0.62357 -1.722273,-0.86112 -1.039303,-0.23756 -2.434938,-0.23756 h -4.602627 v 10.5118 z m 1.187774,-13.06551 q 1.63319,0 3.028826,0.47511 1.425329,0.4751 2.464632,1.45502 1.039302,0.95022 1.633189,2.43493 0.593887,1.45503 0.593887,3.44454 0,1.98954 -0.593887,3.47425 -0.593887,1.45503 -1.633189,2.43495 -1.039303,0.95021 -2.464632,1.42532 -1.395636,0.4751 -3.028826,0.4751 h -9.858529 v -0.53448 q 0.68297,0 0.68297,-0.53452 V 196.1127 q 0,-0.53449 -0.68297,-0.53449 v -0.53449 z"
       id="text2"
       aria-label="D" />
    <path
       style="font-size:57.7593px;font-family:Copperplate;-inkscape-font-specification:Copperplate;stroke-width:0.154658"
       d="m 111.09678,198.169 q 0,-0.32664 -0.26725,-0.47512 -0.23755,-0.17816 -0.86114,-0.17816 h -9.62097 v 3.68211 h 5.8201 q 0.59388,0 0.92052,-0.11879 0.32664,-0.11877 0.32664,-0.53449 h 0.5345 v 4.27598 h -0.5345 q 0,-0.68298 -0.32664,-0.86113 -0.32664,-0.20786 -0.92052,-0.20786 h -5.8201 v 5.76069 q 0,0.26726 0.23755,0.41573 0.26726,0.11878 0.65329,0.11878 v 0.5345 h -5.048053 v -0.5345 q 0.77206,0 0.77206,-0.53451 v -13.48124 q 0,-0.53449 -0.77206,-0.53449 v -0.5345 h 13.778183 q 0.62359,0 0.86114,-0.17817 0.26725,-0.20786 0.26725,-0.53449 h 0.5345 v 3.91966 z"
       id="text2-9"
       aria-label="F" />
  </g>
</svg>
